<?xml version="1.0" encoding="UTF-8" standalone="no"?>
<!-- Created with Inkscape (http://www.inkscape.org/) -->

<svg
   xmlns:dc="http://purl.org/dc/elements/1.1/"
   xmlns:cc="http://creativecommons.org/ns#"
   xmlns:rdf="http://www.w3.org/1999/02/22-rdf-syntax-ns#"
   xmlns:svg="http://www.w3.org/2000/svg"
   xmlns="http://www.w3.org/2000/svg"
   xmlns:sodipodi="http://sodipodi.sourceforge.net/DTD/sodipodi-0.dtd"
   xmlns:inkscape="http://www.inkscape.org/namespaces/inkscape"
   width="272.93378"
   height="442.5618"
   viewBox="0 0 72.213727 117.09448"
   version="1.1"
   id="svg4953"
   inkscape:version="0.92.3 (2405546, 2018-03-11)"
   sodipodi:docname="wagsLogo.svg">
  <defs
     id="defs4947" />
  <sodipodi:namedview
     id="base"
     pagecolor="#ffffff"
     bordercolor="#666666"
     borderopacity="1.0"
     inkscape:pageopacity="0.0"
     inkscape:pageshadow="2"
     inkscape:zoom="0.25"
     inkscape:cx="-6.4037138"
     inkscape:cy="212.50174"
     inkscape:document-units="px"
     inkscape:current-layer="layer1"
     showgrid="false"
     units="px"
     showborder="true"
     fit-margin-top="0"
     fit-margin-left="0"
     fit-margin-right="0"
     fit-margin-bottom="0"
     inkscape:window-width="1613"
     inkscape:window-height="995"
     inkscape:window-x="67"
     inkscape:window-y="27"
     inkscape:window-maximized="1" />
  <metadata
     id="metadata4950">
    <rdf:RDF>
      <cc:Work
         rdf:about="">
        <dc:format>image/svg+xml</dc:format>
        <dc:type
           rdf:resource="http://purl.org/dc/dcmitype/StillImage" />
        <dc:title />
      </cc:Work>
    </rdf:RDF>
  </metadata>
  <g
     inkscape:label="Layer 1"
     inkscape:groupmode="layer"
     id="layer1"
     transform="translate(42.456866,-56.684007)">
    <path
       inkscape:connector-curvature="0"
       style="opacity:1;fill:#000000;fill-opacity:1;stroke:none;stroke-width:0.52916664;stroke-miterlimit:4;stroke-dasharray:none;stroke-opacity:1"
       d="m -22.735023,56.687429 c -3.31262,-0.310087 -3.863668,27.544286 -3.889685,28.965672 a 41.087569,41.087561 0 0 0 -0.414446,1.62419 41.087569,41.087561 0 0 0 -0.613915,4.060735 41.087569,41.087561 0 0 0 -0.205155,4.102076 41.087569,41.087561 0 0 0 0.102835,2.906282 41.087569,41.087561 0 0 0 0.495062,4.077266 41.087569,41.087561 0 0 0 0.29559,1.31724 41.087569,41.087561 0 0 0 0.603578,2.69027 41.087569,41.087561 0 0 0 0.684715,2.06086 24.65254,24.652533 0 0 1 0.47129,-0.6196 24.65254,24.652533 0 0 1 1.679482,-1.80351 24.65254,24.652533 0 0 1 1.851567,-1.62626 24.65254,24.652533 0 0 1 2.004529,-1.4335 24.65254,24.652533 0 0 1 2.137338,-1.22577 24.65254,24.652533 0 0 1 2.249475,-1.00665 24.65254,24.652533 0 0 1 2.338358,-0.777217 24.65254,24.652533 0 0 1 2.404504,-0.539501 24.65254,24.652533 0 0 1 2.4463625,-0.29714 24.65254,24.652533 0 0 1 1.743564,-0.0615 24.65254,24.652533 0 0 1 2.461348,0.122989 24.65254,24.652533 0 0 1 2.436545,0.368454 24.65254,24.652533 0 0 1 2.38744898,0.609265 24.65254,24.652533 0 0 1 2.31510402,0.84543 24.65254,24.652533 0 0 1 2.218471,1.07177 24.65254,24.652533 0 0 1 2.101164,1.28777 24.65254,24.652533 0 0 1 1.961637,1.49138 24.65254,24.652533 0 0 1 1.8029895,1.68 24.65254,24.652533 0 0 1 1.626259,1.85105 24.65254,24.652533 0 0 1 0.03514,0.0491 41.087569,41.087561 0 0 0 0.327112,-0.89606 41.087569,41.087561 0 0 0 0.952397,-3.72897 41.087569,41.087561 0 0 0 0.06408,-0.25064 41.087569,41.087561 0 0 0 0.613399,-4.06073 41.087569,41.087561 0 0 0 0.205156,-4.102074 41.087569,41.087561 0 0 0 -0.102836,-2.906284 41.087569,41.087561 0 0 0 -0.494543,-4.077268 41.087569,41.087561 0 0 0 -0.63717,-2.838072 C 13.893198,83.968981 13.298521,54.498327 9.6971085,56.813519 6.3549975,58.962017 1.7587715,70.704334 0.88472648,72.998579 a 24.65254,24.652533 0 0 0 -2.33680798,-0.596863 24.65254,24.652533 0 0 0 -1.696022,-0.256315 24.65254,24.652533 0 0 0 -0.740523,-0.112139 24.65254,24.652533 0 0 0 -2.461348,-0.122989 24.65254,24.652533 0 0 0 -1.743564,0.06149 24.65254,24.652533 0 0 0 -1.465027,0.177765 24.65254,24.652533 0 0 0 -0.9813355,0.119375 24.65254,24.652533 0 0 0 -2.404504,0.539501 24.65254,24.652533 0 0 0 -0.632521,0.210323 c -0.843732,-2.217489 -5.46291,-14.046997 -8.820131,-16.205208 -0.115756,-0.07442 -0.228331,-0.115827 -0.337966,-0.12609 z"
       id="path4731" />
    <path
       style="opacity:1;fill:#000000;fill-opacity:1;stroke:none;stroke-width:0.52916664;stroke-miterlimit:4;stroke-dasharray:none;stroke-opacity:1"
       d="m -6.3499765,105.039 a 41.087569,41.087561 0 0 0 -2.90629,0.10284 41.087569,41.087561 0 0 0 -4.0772685,0.49506 41.087569,41.087561 0 0 0 -4.007511,0.89917 41.087569,41.087561 0 0 0 -3.89743,1.29501 41.087569,41.087561 0 0 0 -3.74861,1.67793 41.087569,41.087561 0 0 0 -0.29507,0.1695 41.087569,41.087561 0 0 0 -1.38907,0.79634 41.087569,41.087561 0 0 0 -0.64492,0.37 41.087569,41.087561 0 0 0 -1.23351,0.70745 41.087569,41.087561 0 0 0 -3.34088,2.389 41.087569,41.087561 0 0 0 -3.0856,2.71095 41.087569,41.087561 0 0 0 -0.8723,0.93637 65.740108,65.740108 0 0 0 -1.41904,2.93729 65.740108,65.740108 0 0 0 -2.253089,6.17327 65.740108,65.740108 0 0 0 -1.625741,6.36705 65.740108,65.740108 0 0 0 -0.0724,0.47749 65.740108,65.740108 0 0 0 -0.9095,6.01979 65.740108,65.740108 0 0 0 -0.32866,6.5629 65.740108,65.740108 0 0 0 0.16484,4.65036 65.740108,65.740108 0 0 0 0.79169,6.52364 65.740108,65.740108 0 0 0 1.43919,6.4115 65.740108,65.740108 0 0 0 0.28112,0.84646 65.740108,65.740108 0 0 0 1.91254,1.17253 65.740108,65.740108 0 0 0 5.91695,2.85823 65.740108,65.740108 0 0 0 6.17327,2.25309 65.740108,65.740108 0 0 0 6.36653,1.62574 65.740108,65.740108 0 0 0 6.497801,0.98185 65.740108,65.740108 0 0 0 6.5629075,0.32867 65.740108,65.740108 0 0 0 4.650362,-0.16485 65.740108,65.740108 0 0 0 3.803899,-0.46147 65.740108,65.740108 0 0 0 2.71921,-0.33022 65.740108,65.740108 0 0 0 6.4120095,-1.43918 65.740108,65.740108 0 0 0 6.235801,-2.07223 65.740108,65.740108 0 0 0 5.95984,-2.66702 65.740108,65.740108 0 0 0 0.0383,-0.017 65.740108,65.740108 0 0 0 3.605462,-2.06809 65.740108,65.740108 0 0 0 1.371489,-5.37125 65.740108,65.740108 0 0 0 0.98185,-6.49728 65.740108,65.740108 0 0 0 0.32867,-6.56342 65.740108,65.740108 0 0 0 -0.164851,-4.65037 65.740108,65.740108 0 0 0 -0.791689,-6.52311 65.740108,65.740108 0 0 0 -0.31057,-1.3839 65.740108,65.740108 0 0 0 -1.12861,-5.02811 65.740108,65.740108 0 0 0 -0.99374,-2.99104 21.174604,21.174596 0 0 0 -0.0724,-0.0264 21.174604,21.174596 0 0 0 -2.051039,-0.52348 21.174604,21.174596 0 0 0 -2.09237,-0.31626 21.174604,21.174596 0 0 0 -2.11409,-0.10593 21.174604,21.174596 0 0 0 -1.4981,0.0527 21.174604,21.174596 0 0 0 -0.282149,0.0341 21.174604,21.174596 0 0 0 -1.818492,0.22117 21.174604,21.174596 0 0 0 -2.065509,0.46354 21.174604,21.174596 0 0 0 -2.008669,0.66766 21.174604,21.174596 0 0 0 -1.93166,0.86455 21.174604,21.174596 0 0 0 -1.8360595,1.05316 21.174604,21.174596 0 0 0 -1.72186,1.23093 21.174604,21.174596 0 0 0 -1.590091,1.39682 21.174604,21.174596 0 0 0 -1.442799,1.54874 21.174604,21.174596 0 0 0 -1.280541,1.68517 21.174604,21.174596 0 0 0 -0.674899,1.10019 21.174604,21.174596 0 0 0 -0.431501,0.70435 21.174604,21.174596 0 0 0 -0.92086902,1.90583 21.174604,21.174596 0 0 0 -0.725541,1.98799 21.174604,21.174596 0 0 0 -0.523989,2.05103 21.174604,21.174596 0 0 0 -0.31626898,2.09238 21.174604,21.174596 0 0 0 -0.10541,2.11409 6.2485463,6.2485477 0 0 1 -0.0315,0.62373 6.2485463,6.2485477 0 0 1 -0.093,0.61753 6.2485463,6.2485477 0 0 1 -0.154508,0.60565 6.2485463,6.2485477 0 0 1 -0.112141,0.30644 6.2485463,6.2485477 0 0 1 -0.10232,0.28009 6.2485463,6.2485477 0 0 1 -0.271809,0.56224 6.2485463,6.2485477 0 0 1 -0.326081,0.53278 6.2485463,6.2485477 0 0 1 -0.378269,0.49713 6.2485463,6.2485477 0 0 1 -0.42582,0.45682 6.2485463,6.2485477 0 0 1 -0.46922,0.41238 6.2485463,6.2485477 0 0 1 -0.507979,0.36328 6.2485463,6.2485477 0 0 1 -0.541571,0.31058 6.2485463,6.2485477 0 0 1 -0.57051,0.25528 6.2485463,6.2485477 0 0 1 -0.59273,0.19689 6.2485463,6.2485477 0 0 1 -0.609262,0.13694 6.2485463,6.2485477 0 0 1 -0.620119,0.0754 6.2485463,6.2485477 0 0 1 -0.441828,0.0155 6.2485463,6.2485477 0 0 1 -0.623732,-0.0315 6.2485463,6.2485477 0 0 1 -0.61754,-0.093 6.2485463,6.2485477 0 0 1 -0.605128,-0.15451 6.2485463,6.2485477 0 0 1 -0.587042,-0.21446 6.2485463,6.2485477 0 0 1 -0.5622395,-0.2713 6.2485463,6.2485477 0 0 1 -0.532789,-0.32659 6.2485463,6.2485477 0 0 1 -0.497131,-0.37828 6.2485463,6.2485477 0 0 1 -0.456811,-0.42529 6.2485463,6.2485477 0 0 1 -0.41238,-0.46922 6.2485463,6.2485477 0 0 1 -0.363289,-0.5085 6.2485463,6.2485477 0 0 1 -0.31057,-0.54157 6.2485463,6.2485477 0 0 1 -0.255281,-0.56999 6.2485463,6.2485477 0 0 1 -0.196889,-0.59273 6.2485463,6.2485477 0 0 1 -0.0145,-0.0641 6.2485463,6.2485477 0 0 1 -0.12247,-0.5457 6.2485463,6.2485477 0 0 1 -0.0331,-0.27492 6.2485463,6.2485477 0 0 1 -0.0419,-0.34468 6.2485463,6.2485477 0 0 1 -0.01601,-0.44235 6.2485463,6.2485477 0 0 1 0.0315,-0.62374 6.2485463,6.2485477 0 0 1 0.0486,-0.32142 31.761906,31.761901 0 0 1 0.109562,-2.19264 31.761906,31.761901 0 0 1 0.474908,-3.13934 31.761906,31.761901 0 0 1 0.785482,-3.07578 31.761906,31.761901 0 0 1 0.948259,-2.59881 31.761906,31.761901 0 0 1 0.140038,-0.38395 31.761906,31.761901 0 0 1 1.3813115,-2.85874 31.761906,31.761901 0 0 1 0.467672,-0.76275 31.761906,31.761901 0 0 1 1.191659,-1.94355 31.761906,31.761901 0 0 1 1.92133,-2.52749 31.761906,31.761901 0 0 1 2.16421,-2.32337 31.761906,31.761901 0 0 1 2.38487,-2.09497 31.761906,31.761901 0 0 1 0.36328,-0.25993 31.761906,31.761901 0 0 1 2.21951098,-1.58698 31.761906,31.761901 0 0 1 2.75383802,-1.57975 31.761906,31.761901 0 0 1 2.898011,-1.29708 31.761906,31.761901 0 0 1 3.012728,-1.00097 31.761906,31.761901 0 0 1 0.134361,-0.03 31.761906,31.761901 0 0 1 0.3653495,-0.0822 31.761906,31.761901 0 0 1 2.598301,-0.58343 31.761906,31.761901 0 0 1 3.15174,-0.3824 31.761906,31.761901 0 0 1 0.388088,-0.0139 31.761906,31.761901 0 0 1 1.858291,-0.0656 31.761906,31.761901 0 0 1 1.14463,0.0574 41.087569,41.087561 0 0 0 -2.453606,-1.86557 41.087569,41.087561 0 0 0 -2.21071,-1.35548 41.087569,41.087561 0 0 0 -0.635108,-0.38912 41.087569,41.087561 0 0 0 -0.655262,-0.40204 41.087569,41.087561 0 0 0 -0.792708,-0.38293 41.087569,41.087561 0 0 0 -2.9052515,-1.40353 41.087569,41.087561 0 0 0 -3.858159,-1.40818 41.087569,41.087561 0 0 0 -3.979609,-1.01596 41.087569,41.087561 0 0 0 -4.060729,-0.61392 41.087569,41.087561 0 0 0 -4.102071,-0.20515 z"
       id="path4689"
       inkscape:connector-curvature="0" />
    <path
       inkscape:connector-curvature="0"
       style="opacity:1;fill:#000000;fill-opacity:1;stroke:none;stroke-width:0.52916664;stroke-miterlimit:4;stroke-dasharray:none;stroke-opacity:1"
       d="m -13.413112,144.80711 a 6.2485466,6.2485479 0 0 0 -0.04857,0.32143 6.2485466,6.2485479 0 0 0 -0.03152,0.62374 6.2485466,6.2485479 0 0 0 0.01603,0.44235 6.2485466,6.2485479 0 0 0 0.04186,0.34468 31.761909,31.761901 0 0 1 -0.02687,-0.75396 31.761909,31.761901 0 0 1 0.04909,-0.97824 z"
       id="path4621" />
  </g>
</svg>
